<?xml version="1.0" encoding="UTF-8"?>
<svg xmlns="http://www.w3.org/2000/svg" version="1.1" viewBox="0 0 800 800">
  <defs>
    <style>
      .cls-1 {
        fill: #14ee20;
      }

      .cls-2 {
        fill: #fff;
      }

      .cls-3 {
        fill: #11b400;
      }
    </style>
  </defs>
  <!-- Generator: Adobe Illustrator 28.6.0, SVG Export Plug-In . SVG Version: 1.2.0 Build 709)  -->
  <g>
    <g id="_图层_1" data-name="图层_1">
      <g>
        <rect x="750" y="600" width="50" height="50"/>
        <rect x="750" y="550" width="50" height="50"/>
        <rect x="750" y="500" width="50" height="50"/>
        <rect x="750" y="450" width="50" height="50"/>
        <rect x="750" y="400" width="50" height="50"/>
        <rect x="750" y="350" width="50" height="50"/>
        <rect x="700" y="650" width="50" height="50"/>
        <rect x="700" y="600" width="50" height="50"/>
        <rect class="cls-2" x="700" y="550" width="50" height="50"/>
        <rect class="cls-2" x="700" y="500" width="50" height="50"/>
        <rect class="cls-2" x="700" y="450" width="50" height="50"/>
        <rect class="cls-2" x="700" y="400" width="50" height="50"/>
        <rect class="cls-1" x="700" y="350" width="50" height="50"/>
        <rect x="700" y="300" width="50" height="50"/>
        <rect x="650" y="700" width="50" height="50"/>
        <rect class="cls-2" x="650" y="650" width="50" height="50"/>
        <rect x="650" y="600" width="50" height="50"/>
        <rect x="650" y="550" width="50" height="50"/>
        <rect x="650" y="500" width="50" height="50"/>
        <rect x="650" y="450" width="50" height="50"/>
        <rect x="650" y="400" width="50" height="50"/>
        <rect class="cls-1" x="650" y="350" width="50" height="50"/>
        <rect class="cls-1" x="650" y="300" width="50" height="50"/>
        <rect x="650" y="250" width="50" height="50"/>
        <rect x="600" y="700" width="50" height="50"/>
        <rect x="600" y="650" width="50" height="50"/>
        <rect class="cls-3" x="600" y="600" width="50" height="50"/>
        <rect class="cls-3" x="600" y="550" width="50" height="50"/>
        <rect class="cls-3" x="600" y="500" width="50" height="50"/>
        <rect class="cls-3" x="600" y="450" width="50" height="50"/>
        <rect class="cls-3" x="600" y="400" width="50" height="50"/>
        <rect x="600" y="350" width="50" height="50"/>
        <rect class="cls-1" x="600" y="300" width="50" height="50"/>
        <rect x="600" y="250" width="50" height="50"/>
        <rect x="600" y="200" width="50" height="50"/>
        <rect x="600" y="150.01" width="50" height="50"/>
        <rect x="600" y="100.01" width="50" height="50"/>
        <rect x="550" y="750" width="50" height="50"/>
        <rect x="550" y="700" width="50" height="50"/>
        <rect class="cls-3" x="550" y="650" width="50" height="50"/>
        <rect class="cls-3" x="550" y="600" width="50" height="50"/>
        <rect class="cls-3" x="550" y="550" width="50" height="50"/>
        <rect class="cls-1" x="550" y="500" width="50" height="50"/>
        <rect class="cls-1" x="550" y="450" width="50" height="50"/>
        <rect class="cls-1" x="550" y="400" width="50" height="50"/>
        <rect class="cls-3" x="550" y="350" width="50" height="50"/>
        <rect x="550" y="300" width="50" height="50"/>
        <rect class="cls-2" x="550" y="250" width="50" height="50"/>
        <rect class="cls-2" x="550" y="200" width="50" height="50"/>
        <rect class="cls-2" x="550" y="150.01" width="50" height="50"/>
        <rect class="cls-1" x="550" y="100.01" width="50" height="50"/>
        <rect x="550" y="49.99" width="50" height="50.01"/>
        <rect x="500.01" y="750" width="50" height="50"/>
        <rect class="cls-3" x="500.01" y="700" width="50" height="50"/>
        <rect class="cls-3" x="500.01" y="650" width="50" height="50"/>
        <rect class="cls-3" x="500.01" y="600" width="50" height="50"/>
        <rect class="cls-1" x="500.01" y="550" width="50" height="50"/>
        <rect class="cls-1" x="500.01" y="500" width="50" height="50"/>
        <rect class="cls-1" x="500.01" y="450" width="50" height="50"/>
        <rect class="cls-1" x="500.01" y="400" width="50" height="50"/>
        <rect class="cls-1" x="500.01" y="350" width="50" height="50"/>
        <rect class="cls-3" x="500.01" y="300" width="50" height="50"/>
        <rect x="500.01" y="250" width="50" height="50"/>
        <rect class="cls-2" x="500.01" y="200" width="50" height="50"/>
        <rect class="cls-2" x="500.01" y="150.01" width="50" height="50"/>
        <rect class="cls-2" x="500.01" y="100.01" width="50" height="50"/>
        <rect class="cls-1" x="500.01" y="49.99" width="50" height="50.01"/>
        <rect x="500.01" y="0" width="50" height="50"/>
        <rect x="450.01" y="750" width="50" height="50"/>
        <rect class="cls-3" x="450.01" y="700" width="50" height="50"/>
        <rect class="cls-3" x="450.01" y="650" width="50" height="50"/>
        <rect class="cls-1" x="450.01" y="600" width="50" height="50"/>
        <rect class="cls-1" x="450.01" y="550" width="50" height="50"/>
        <rect class="cls-1" x="450.01" y="500" width="50" height="50"/>
        <rect class="cls-1" x="450.01" y="450" width="50" height="50"/>
        <rect x="450.01" y="400" width="50" height="50"/>
        <rect class="cls-1" x="450.01" y="350" width="50" height="50"/>
        <rect class="cls-1" x="450.01" y="300" width="50" height="50"/>
        <rect x="450.01" y="250" width="50" height="50"/>
        <rect x="450.01" y="200" width="50" height="50"/>
        <rect x="450.01" y="150.01" width="50" height="50"/>
        <rect class="cls-2" x="450.01" y="100.01" width="50" height="50"/>
        <rect class="cls-1" x="450.01" y="49.99" width="50" height="50.01"/>
        <rect x="450.01" y="0" width="50" height="50"/>
        <rect x="400.01" y="750" width="50" height="50"/>
        <rect class="cls-3" x="400.01" y="700" width="50" height="50"/>
        <rect class="cls-3" x="400.01" y="650" width="50" height="50"/>
        <rect class="cls-1" x="400.01" y="600" width="50" height="50"/>
        <rect class="cls-1" x="400.01" y="550" width="50" height="50"/>
        <rect class="cls-1" x="400.01" y="500" width="50" height="50"/>
        <rect class="cls-1" x="400.01" y="450" width="50" height="50"/>
        <rect class="cls-1" x="400.01" y="400" width="50" height="50"/>
        <rect class="cls-1" x="400.01" y="350" width="50" height="50"/>
        <rect class="cls-1" x="400.01" y="300" width="50" height="50"/>
        <rect x="400.01" y="250" width="50" height="50"/>
        <rect class="cls-2" x="400.01" y="200" width="50" height="50"/>
        <rect class="cls-2" x="400.01" y="150.01" width="50" height="50"/>
        <rect class="cls-1" x="400.01" y="100.01" width="50" height="50"/>
        <rect x="400.01" y="49.99" width="50" height="50.01"/>
        <rect x="349.99" y="750" width="50.01" height="50"/>
        <rect class="cls-3" x="349.99" y="700" width="50.01" height="50"/>
        <rect class="cls-3" x="349.99" y="650" width="50.01" height="50"/>
        <rect class="cls-1" x="349.99" y="600" width="50.01" height="50"/>
        <rect class="cls-1" x="349.99" y="550" width="50.01" height="50"/>
        <rect class="cls-1" x="349.99" y="500" width="50.01" height="50"/>
        <rect class="cls-1" x="349.99" y="450" width="50.01" height="50"/>
        <rect class="cls-1" x="349.99" y="400" width="50.01" height="50"/>
        <rect class="cls-1" x="349.99" y="350" width="50.01" height="50"/>
        <rect class="cls-1" x="349.99" y="300" width="50.01" height="50"/>
        <rect x="349.99" y="250" width="50.01" height="50"/>
        <rect class="cls-2" x="349.99" y="200" width="50.01" height="50"/>
        <rect class="cls-2" x="349.99" y="150.01" width="50.01" height="50"/>
        <rect class="cls-1" x="349.99" y="100.01" width="50.01" height="50"/>
        <rect x="349.99" y="49.99" width="50.01" height="50.01"/>
        <rect x="299.99" y="750" width="50" height="50"/>
        <rect class="cls-3" x="299.99" y="700" width="50" height="50"/>
        <rect class="cls-3" x="299.99" y="650" width="50" height="50"/>
        <rect class="cls-1" x="299.99" y="600" width="50" height="50"/>
        <rect class="cls-1" x="299.99" y="550" width="50" height="50"/>
        <rect class="cls-1" x="299.99" y="500" width="50" height="50"/>
        <rect class="cls-1" x="299.99" y="450" width="50" height="50"/>
        <rect x="299.99" y="400" width="50" height="50"/>
        <rect class="cls-1" x="299.99" y="350" width="50" height="50"/>
        <rect class="cls-1" x="299.99" y="300" width="50" height="50"/>
        <rect x="299.99" y="250" width="50" height="50"/>
        <rect x="299.99" y="200" width="50" height="50"/>
        <rect x="299.99" y="150.01" width="50" height="50"/>
        <rect class="cls-2" x="299.99" y="100.01" width="50" height="50"/>
        <rect class="cls-1" x="299.99" y="49.99" width="50" height="50.01"/>
        <rect x="299.99" y="0" width="50" height="50"/>
        <rect x="250" y="750" width="50" height="50"/>
        <rect class="cls-3" x="250" y="700" width="50" height="50"/>
        <rect class="cls-3" x="250" y="650" width="50" height="50"/>
        <rect class="cls-1" x="250" y="600" width="50" height="50"/>
        <rect class="cls-1" x="250" y="550" width="50" height="50"/>
        <rect class="cls-1" x="250" y="500" width="50" height="50"/>
        <rect class="cls-1" x="250" y="450" width="50" height="50"/>
        <rect class="cls-1" x="250" y="400" width="50" height="50"/>
        <rect class="cls-1" x="250" y="350" width="50" height="50"/>
        <rect class="cls-1" x="250" y="300" width="50" height="50"/>
        <rect x="250" y="250" width="50" height="50"/>
        <rect class="cls-2" x="250" y="200" width="50" height="50"/>
        <rect class="cls-2" x="250" y="150.01" width="50" height="50"/>
        <rect class="cls-2" x="250" y="100.01" width="50" height="50"/>
        <rect class="cls-1" x="250" y="49.99" width="50" height="50.01"/>
        <rect x="250" y="0" width="50" height="50"/>
        <rect x="200" y="750" width="50" height="50"/>
        <rect x="200" y="700" width="50" height="50"/>
        <rect class="cls-3" x="200" y="650" width="50" height="50"/>
        <rect class="cls-3" x="200" y="600" width="50" height="50"/>
        <rect class="cls-1" x="200" y="550" width="50" height="50"/>
        <rect class="cls-1" x="200" y="500" width="50" height="50"/>
        <rect class="cls-1" x="200" y="450" width="50" height="50"/>
        <rect class="cls-1" x="200" y="400" width="50" height="50"/>
        <rect class="cls-1" x="200" y="350" width="50" height="50"/>
        <rect x="200" y="300" width="50" height="50"/>
        <rect class="cls-2" x="200" y="250" width="50" height="50"/>
        <rect class="cls-2" x="200" y="200" width="50" height="50"/>
        <rect class="cls-2" x="200" y="150.01" width="50" height="50"/>
        <rect class="cls-1" x="200" y="100.01" width="50" height="50"/>
        <rect x="200" y="49.99" width="50" height="50.01"/>
        <rect x="150" y="700" width="50" height="50"/>
        <rect x="150" y="650" width="50" height="50"/>
        <rect class="cls-3" x="150" y="600" width="50" height="50"/>
        <rect class="cls-3" x="150" y="550" width="50" height="50"/>
        <rect class="cls-1" x="150" y="500" width="50" height="50"/>
        <rect class="cls-1" x="150" y="450" width="50" height="50"/>
        <rect class="cls-1" x="150" y="400" width="50" height="50"/>
        <rect x="150" y="350" width="50" height="50"/>
        <rect class="cls-1" x="150" y="300" width="50" height="50"/>
        <rect x="150" y="250" width="50" height="50"/>
        <rect x="150" y="200" width="50" height="50"/>
        <rect x="150" y="150.01" width="50" height="50"/>
        <rect x="150" y="100.01" width="50" height="50"/>
        <rect x="100" y="700" width="50" height="50"/>
        <rect class="cls-2" x="100" y="650" width="50" height="50"/>
        <rect x="100" y="600" width="50" height="50"/>
        <rect x="100" y="550" width="50" height="50"/>
        <rect x="100" y="500" width="50" height="50"/>
        <rect x="100" y="450" width="50" height="50"/>
        <rect x="100" y="400" width="50" height="50"/>
        <rect class="cls-1" x="100" y="350" width="50" height="50"/>
        <rect class="cls-1" x="100" y="300" width="50" height="50"/>
        <rect x="100" y="250" width="50" height="50"/>
        <rect x="50" y="650" width="50" height="50"/>
        <rect x="50" y="600" width="50" height="50"/>
        <rect class="cls-2" x="50" y="550" width="50" height="50"/>
        <rect class="cls-2" x="50" y="500" width="50" height="50"/>
        <rect class="cls-2" x="50" y="450" width="50" height="50"/>
        <rect class="cls-2" x="50" y="400" width="50" height="50"/>
        <rect class="cls-1" x="50" y="350" width="50" height="50"/>
        <rect x="50" y="300" width="50" height="50"/>
        <rect x="0" y="600" width="50" height="50"/>
        <rect x="0" y="550" width="50" height="50"/>
        <rect x="0" y="500" width="50" height="50"/>
        <rect x="0" y="450" width="50" height="50"/>
        <rect x="0" y="400" width="50" height="50"/>
        <rect x="0" y="350" width="50" height="50"/>
      </g>
    </g>
  </g>
</svg>